<svg width="1em" height="1.44em" viewBox="0 0 59 41" xmlns="http://www.w3.org/2000/svg"><path d="M7.82 1.374c17.875-.94 47.312-2.398 48.667-.296 1.355 2.101 2.476 33.634 1.09 34.811-3.683 3.124-15.173 2.798-24.617 3.392-12.364.777-23.19 1.778-28.245.498C2.86 35.984 1.02 25.937.375 19.669-.528 10.891.317 4.34 1.665 3.18 3.218 1.844 5.488 1.497 7.82 1.374zm31.928 5.16h-.13c-2.552.024-4.919 1.365-7.344 3.808l-.088.09c-1.345 1.365-2.498 2.788-4.27 5.226l-.234.324a26.795 26.795 0 00-3.777-4.44c-2.843-2.657-5.742-4.063-8.43-3.513-5.982 1.224-9.318 6.601-8.907 12.694.408 6.046 4.396 10.76 10.133 10.617l.048-.002.24-.012.047-.003.126-.01c2.213-.21 4.272-1.481 6.408-3.673 1.055-1.082 2.018-2.237 3.268-3.912l.254-.342c1.28 2.8 2.396 4.537 4.02 6.136 2.673 2.632 6.272 4.048 11.297 4.322 3.39.186 5.904-1.532 7.16-4.59 1.013-2.467 1.17-5.718.571-9.158-1.276-7.327-5.397-13.522-10.392-13.562zm.012 4.752l.074.002c2.438.102 5.298 4.295 6.225 9.44.453 2.519.338 4.817-.315 6.355-.613 1.443-1.611 2.102-3.253 2.015-3.928-.207-6.504-1.186-8.361-2.954l-.07-.067-.07-.069c-1.31-1.292-2.243-2.875-3.538-5.836l-.158-.364.221-.3c2.203-2.988 3.38-4.444 4.74-5.77l.101-.096c1.671-1.603 3.11-2.366 4.404-2.356zm-23.097 1.815c2.122-.414 6.255 3.092 8.266 6.52l.019.032-.242.323c-1.549 2.056-2.556 3.283-3.59 4.322l-.198.197-.095.092-.096.092c-1.343 1.276-2.498 1.938-3.507 2.037l-.056.004-.168.009h-.074c-3.13.024-5.36-2.528-5.613-6.109-.263-3.727 1.74-6.812 5.354-7.519z" fill="currentColor" fill-rule="evenodd"/></svg>