<svg width="1em" height="1.32em" viewBox="0 0 53 48" xmlns="http://www.w3.org/2000/svg"><path d="M51 3.305c-1.569.93-10.91 6.166-12.414 7.28-5.66 4.194-6.048 5.42-10.53 9.848-.243.24 9.822 12.918 20.332 16.992.219.085 1.082-8.34 1.161-8.888C50.74 20.298 51 11.66 51 3.305zm-29.243.38c.022-.35.085-.641-.014-.679-.39-.149-2.602 2.471-2.902 2.867C15.765 9.925-.222 18.752 2.26 21.205c.235.232 14.58 13.945 17.45 16.782.326.321 1.836-5.238 1.88-5.498.327-1.939-.134-24.092.166-28.805h0z" fill="currentColor" stroke="currentColor" stroke-width="3.6" fill-rule="evenodd"/></svg>