<svg width="1em" height="1.2em" viewBox="0 0 57 47" xmlns="http://www.w3.org/2000/svg"><path d="M7.422 2.178C25.015 1.12 50.8-1.039 55.355.967c.088.038 1.985 2.166.508 21.505-.177 2.315 1.896 17.21.531 18.534-3.624 3.514-14.933 3.147-24.229 3.815-12.169.875-22.824 2-27.8.56l-.164-.395C2.47 40.682 1.357 33.792.741 26.956c-.89-9.876-.704-21.442.623-22.747 1.528-1.503 3.762-1.893 6.058-2.03zM40.68 3.591c-.346.018-.404.022-.733.15l-.234.094c-.488.338-.54.375-.776.756l-.094.153c-.156.423-.177.481-.194.713l-.008.126c.007.223.009.268.027.37l.017.092c.053.256.127.421.226.599.039.068.077.13.119.191.09.133.208.285.364.476l.114.137c.16.19.35.411.56.65l.068.076.079.098c.346.43.673.833.983 1.21l.283.344-.07-.002c-.598-.02-1.012-.01-1.322.034-.5.071-1.002.2-1.508.38-1.47.526-2.881 1.43-4.57 2.785l-.168.135c-.169.137-.34.279-.531.437l-1.292 1.082c-1.088.922-1.996 1.956-2.836 3.2-1.557-2.705-2.636-4.237-4.105-5.697-1.408-1.4-3.6-2.1-6.522-2.425l-.327-.035c-1.334-.133-2.443-.175-4.207-.186l-.693-.003c-.782-.002-1.132-.008-1.248-.019l-.084-.01a2.033 2.033 0 00-2.232 1.736 2.025 2.025 0 001.738 2.28l.032.005c.26.034.503.046 1.054.051l1.064.004c1.737.007 2.786.039 3.949.147l.351.035c2.146.227 3.656.694 4.247 1.281 1.317 1.31 2.335 2.84 4.082 5.96l.588 1.059-.076.163-.811 1.71c-1.137 2.353-1.901 3.509-2.88 4.239-2.97 2.216-4.691 3.167-6.158 3.167-.361 0-.857-.023-1.444-.065l-.19-.015a54.358 54.358 0 01-1.842-.17l-.481-.053a2.037 2.037 0 00-2.202 1.784 2.031 2.031 0 001.788 2.252l.459.05a73.242 73.242 0 002.172.199c.678.049 1.263.076 1.74.076 1.573 0 3.165-.527 4.87-1.47 1.064-.587 1.949-1.186 3.333-2.21l.403-.299c1.54-1.15 2.546-2.58 3.81-5.119a24.085 24.085 0 001.976 2.648l.158.182c2.06 2.34 4.416 3.898 7.291 4.613.783.194 1.5.243 2.571.233l.561-.007.38-.002.229-.004-.06.064a1.81 1.81 0 00-.153.191c-.06.09-.609.727-1.419 1.64l-1.775 2a14.18 14.18 0 00-.28.325l-.07.088-.094.13a.825.825 0 00-.03.047l-.121.22c-.09.165-.107.196-.153.63l-.037.371c.029.258.035.312.119.535l.085.22c.23.38.267.443.535.658l.19.152c.409.208.467.238.73.285l.15.025c.254.012.318.015.43.001l.14-.019c.481-.143.553-.164.662-.233l.187-.122.092-.07c.07-.056.124-.105.198-.176l.08-.08.05-.05c.094-.1.177-.21.248-.324l.006-.01 2.313-2.607c.43-.49.725-.836.923-1.085l.09-.116.021-.02.186-.165.08-.068c.189-.164.412-.351.658-.55l.215-.172a34.376 34.376 0 013.112-2.212 2.016 2.016 0 00.293-3.203l-7.495-6.847-.06-.053c-1.98-1.702-4.654 1.191-2.715 3.013l2.012 1.892 1.698 1.6-.442.023c-.331.016-.612.026-.798.028l-.199.001-.91.01c-.69.004-1.1-.027-1.446-.113-2.01-.5-3.67-1.597-5.214-3.352-1.031-1.172-1.887-2.436-3.079-4.503 1.03-1.911 2.014-3.225 3.272-4.268l1.171-.981c.239-.199.444-.366.649-.53l.126-.102c1.303-1.035 2.348-1.697 3.26-2.022.256-.092.492-.152.707-.183l.012-.001c.122-.012.548 0 1.193.034l.501.029-.152.157a16.506 16.506 0 00-1.42 1.654c-.828 1.127-1.307 2.2-1.307 3.34 0 1.121.913 2.03 2.04 2.03a2.035 2.035 0 002.038-1.967l.002-.06.015-.061c.014-.045.034-.1.062-.163.09-.2.238-.444.443-.723.298-.406.691-.853 1.203-1.378l.211-.214c.195-.195 1.66-1.61 1.997-1.97l.08-.087c.21-.228.381-.434.524-.64l.007-.011.03-.023c.16-.13.314-.31.474-.564.559-.887.415-1.427.05-2.092a2.557 2.557 0 00-.227-.344 6.016 6.016 0 00-.335-.39 22.643 22.643 0 00-.616-.638l-.168-.168a45.216 45.216 0 00-1.284-1.23l-.104-.09c-.536-.466-1.329-1.268-2.14-2.15l-.281-.309-.247-.275-.605-.755-.572-.718-.297-.186-.094-.056a1.498 1.498 0 00-.057-.03l-.13-.063c-.199-.085-.237-.102-.553-.14z" fill="currentColor" fill-rule="evenodd"/></svg>