<svg width="1em" height="1.2em" viewBox="0 0 52 44" xmlns="http://www.w3.org/2000/svg"><path d="M2.045 6.703c-.325-1.868 1.136 18.42 3.408 26.199.21.72.66 6.176 1.276 5.825 3.395-1.938 19.663-18.905 18.908-20.63-.64-1.459-12.207-5.921-23.592-11.394zM30.002 3c-.297.705-.143 10.558.593 18.355.638 6.763 1.977 17.202 1.977 18.645 0 0 5.663-4.415 9.869-11 4.245-6.648 8.264-12.207 7.454-12.872-2.474-2.033-11.4-8.938-15.137-10.212-1.263-.43-3.136-2.042-4.756-2.916h0z" fill="#ffffff" stroke="#ffffff" stroke-width="3.6" fill-rule="evenodd"/></svg>