<svg width="1em" height="1em" viewBox="0 0 68 66" xmlns="http://www.w3.org/2000/svg"><path d="M32.445.057C33.901.05 38.46.258 39.593.66c2.148.762 4.318 1.47 6.423 2.344 3.99 1.658 7.757 3.619 11.206 6.215 3.154 2.374 5.91 4.269 7.983 7.68 4.071 6.7 2.418 18.634-.334 25.416-3.273 8.065-2.825 9.466-9.328 15.465-2.285 2.109-10.348 5.75-13.316 6.785-2.34.816-14.07 1.03-15.795.872-11.172-1.024-17.323-6.288-22.23-16.68-1.78-3.769-2.72-7.956-3.298-12.06-.65-4.61-1.067-9.796.075-14.376 1.242-4.976 4.302-9.41 7.93-12.958 1.516-1.483 3.268-3.005 5.22-3.895 2.41-1.098 6.276-2.554 8.8-3.325C27.059.883 28.76.07 32.446.057zm1.699 16.56c-.205-.105.277 2.713.317 3.656.094 2.252.194 4.525.264 6.78.163 5.24.33 10.448.616 15.658.004.074.407 6.24.44 6.287.404.565 3.417.123 4.05.123.816 0 3.378.079 3.963-.74.044-.061 0-.52 0-.616 0-.963-.463-2.195-.528-3.205-.213-3.27 0-6.7 0-9.986 0-2.171 1.011-16.46.088-17.752-.06-.082-1.863.132-1.937.123-.914-.107-1.817-.295-2.73-.37-1.232-.101-3.417-.484-4.543.042zm-12.682 2.356c.127.718.777 9.51 1.063 11.501.81 5.638 1.672 11.85 1.672 17.455v.237c.37.367 2.63.594 3.181.594.536 0 2.314.237 2.79 0 1.79-.89.77-3.99.597-6.056-.47-5.597-.597-11.214-.597-16.821 0-.391.685-8.292.597-8.38-.122-.082-9.632-.375-9.303 1.47z" fill="#ffffff" fill-rule="evenodd"/></svg>