<svg version="1.1" xmlns="http://www.w3.org/2000/svg" xmlns:xlink="http://www.w3.org/1999/xlink" xml:space="preserve" xmlns:serif="http://www.serif.com/" style="fill-rule:evenodd;clip-rule:evenodd;stroke-linejoin:round;stroke-miterlimit:2;" viewBox="212.85 125.02 440.9 471.08">
    <path fill="currentColor" d="M370.112,143.111C338.067,152.955 322.546,158.88 302.676,175.201C258.041,211.865 245.815,245.601 234.708,301.74C227.187,339.749 216.349,382.192 222.79,420.914C239.417,520.869 312.614,581.477 412.727,587.592C459.426,590.444 511.682,581.071 549.854,552.561C587.208,524.661 606.693,479.366 621.857,436.894C650.614,356.351 660.756,297.055 609.037,222.89C566.002,161.177 517.657,140.801 451.692,133.371C435.12,131.505 390.741,136.775 370.112,143.111Z"/>
    <path fill="currentColor" d="M367.763,135.464C334.391,145.715 318.291,152.022 297.598,169.019C251.289,207.059 238.384,241.942 226.86,300.187C219.16,339.103 208.304,382.581 214.899,422.226C232.181,526.123 308.179,589.221 412.239,595.577C460.753,598.54 514.986,588.589 554.641,558.97C593.259,530.127 613.714,483.493 629.391,439.584C659.129,356.294 669.082,295.009 615.599,218.314C570.996,154.353 520.955,133.122 452.587,125.422C435.358,123.481 389.209,128.876 367.763,135.464L367.763,135.464ZM372.461,150.758C392.272,144.673 434.882,139.529 450.797,141.321C514.359,148.48 561.007,168.001 602.475,227.466C652.43,299.102 642.099,356.407 614.323,434.204C599.671,475.24 581.157,519.195 545.067,546.151C508.379,573.554 458.099,582.348 413.215,579.607C317.05,573.733 246.652,515.614 230.682,419.601C224.394,381.802 235.214,340.396 242.555,303.292C253.246,249.26 264.793,216.672 307.754,181.383C326.8,165.738 341.744,160.194 372.461,150.758L372.461,150.758Z"/>
</svg>