<svg width="4.35em" height="3em" viewBox="0 0 138 96" xmlns="http://www.w3.org/2000/svg"><path d="M65.878 1.088c-.1.057-.638.125-1.187.17-1.703.103-2.902.25-3.137.376-.124.068-.583.148-1.031.193-.448.046-.975.137-1.176.205a16.82 16.82 0 0 1-1.68.364 2.865 2.865 0 0 0-.528.17 1.109 1.109 0 0 1-.448.125c-.134 0-.325.046-.436.102-.101.057-.415.16-.695.239-.28.08-.594.182-.695.239a1.057 1.057 0 0 1-.403.102c-.112 0-.247.034-.28.08-.079.068-1.143.477-1.927.716-.19.057-.437.159-.56.227-.123.057-.527.205-.897.33-.65.204-1.691.58-2.968 1.057-.986.364-1.49.58-2.476 1.046-.348.16-.684.295-.751.295-.067 0-.258.08-.437.17-.168.092-.874.422-1.546.751-1.31.614-3.675 1.82-4.201 2.149-.09.057-.83.466-1.625.92-.806.455-1.736 1-2.072 1.217l-1.009.648c-1.814 1.136-5.579 3.797-7.282 5.15-3.495 2.784-5.78 4.853-9.13 8.252-3.35 3.4-6.23 6.673-8.65 9.844-.907 1.194-1.277 1.672-1.377 1.785a8.643 8.643 0 0 0-.376.528l-.072.109c-.18.273-.404.568-.505.648-.09.08-.168.193-.168.261s-.09.227-.213.353c-.56.636-3.887 5.888-4.694 7.411-.37.705-.325 1.25.146 1.921.204.305 1.085 1.631 1.986 3l.12.183c2.285 3.479 2.375 3.615 3.103 4.604.348.466.717.977.818 1.137.482.693 2.79 3.706 3.574 4.672.224.273.75.91 1.165 1.41 1.748 2.136 4.482 5.103 7.07 7.673 1.702 1.705 2.33 2.296 3.686 3.523 2.072 1.888 4.929 4.207 7.102 5.764l.22.158c.631.457 1.234.89 1.405 1.013 3.193 2.296 7.55 4.82 11.82 6.843l.137.066c.485.23.975.465 1.128.548.18.09.381.159.448.159.079 0 .28.08.47.182.337.182 1.805.773 2.936 1.193 1.456.535 1.826.66 2.61.898.46.148.986.33 1.177.41.18.068.616.204.952.273.336.08.661.181.728.227.056.034.46.136.897.227.425.08.829.182.896.227.112.08.493.16 1.456.296.247.046.493.114.56.17.057.058.314.103.572.103.269 0 .504.045.538.102.033.046.38.125.761.17 1.692.205 2.073.262 2.364.387.448.194 13.59.182 13.915 0 .201-.113.952-.238 2.352-.386.303-.034.662-.103.785-.16a3.02 3.02 0 0 1 .616-.158c.549-.08 1.423-.262 1.96-.398 1.7-.423 2.278-.578 2.931-.768l.095-.028c.425-.125.93-.284 1.12-.341.179-.068 1.12-.387 2.072-.705.952-.318 1.782-.625 1.849-.682a.484.484 0 0 1 .302-.102c.112 0 .314-.057.46-.137.493-.261.638-.318.75-.318.056 0 .437-.148.818-.341.392-.182.796-.341.885-.341.101 0 .235-.08.314-.17.078-.091.213-.171.291-.171.202 0 4.66-2.206 5.781-2.853.448-.262.964-.557 1.154-.671.18-.102.639-.364 1.008-.58.37-.204.919-.546 1.21-.761.303-.205.628-.41.728-.455.157-.068 2.846-1.864 4.056-2.717 2.04-1.444 6.465-5.047 8.066-6.582.337-.318.84-.784 1.12-1.023 1.95-1.693 6.252-6.252 9.03-9.594 1.3-1.558 1.648-1.978 2.185-2.671.336-.444.919-1.217 1.311-1.706a121.35 121.35 0 0 0 1.927-2.614c.672-.932 1.266-1.75 1.31-1.819.236-.307 3.731-5.66 4.101-6.275.572-.966.56-1.296-.157-2.694-.313-.625-.627-1.182-.683-1.25-.056-.069-.347-.535-.66-1.035a95.319 95.319 0 0 0-.897-1.398c-.18-.262-.325-.512-.325-.534 0-.057-.381-.614-1.871-2.717-.37-.535-1.86-2.547-2.644-3.592a100.54 100.54 0 0 0-3.876-4.729c-.438-.485-.871-.974-1.3-1.467-1.691-1.92-6.027-6.263-7.797-7.786-.393-.341-.796-.705-.885-.807-.169-.182-2.275-1.956-2.97-2.49-1.053-.818-3.517-2.705-3.809-2.91-1.568-1.103-3.002-2.092-3.036-2.092-.033 0-.37-.216-.75-.488-.729-.512-3.35-2.092-5.064-3.058-1.03-.569-5.31-2.706-5.568-2.763-.168-.045-.359-.148-.437-.238a.423.423 0 0 0-.303-.16c-.09 0-.493-.147-.885-.34-.38-.183-.75-.342-.795-.342-.056 0-.302-.102-.56-.227-.247-.125-.527-.227-.617-.227a.467.467 0 0 1-.246-.091 2.998 2.998 0 0 0-.56-.239 8.624 8.624 0 0 1-.672-.239 25.466 25.466 0 0 0-2.073-.738c-.28-.091-.829-.285-1.232-.455a47.969 47.969 0 0 0-1.569-.58c-.46-.148-.93-.33-1.03-.387a.956.956 0 0 0-.377-.111l-.098-.004c-.12-.01-.279-.05-.377-.1-.1-.057-.414-.16-.694-.24-.28-.067-.729-.204-1.009-.283a8.05 8.05 0 0 0-1.008-.239 5.103 5.103 0 0 1-.908-.216c-.212-.08-.772-.193-1.232-.239-.459-.045-.952-.125-1.109-.193-.314-.125-1.625-.284-2.969-.375a9.587 9.587 0 0 1-1.344-.16c-.56-.124-6.084-.136-6.32-.01ZM50.605 10.06c0 .034-.224.375-.493.762-.817 1.17-2.64 4.594-2.64 4.946 0 .057-.101.307-.224.569-.124.25-.224.557-.224.682a.5.5 0 0 1-.101.307c-.112.125-.772 2.263-.906 2.957-.056.25-.123.66-.168.91-.045.25-.112.557-.168.682-.056.125-.123.489-.168.796-.034.318-.123.955-.19 1.421-.157 1.047-.157 4.503 0 5.743.257 1.944.694 3.957 1.074 4.947.09.216.291.784.47 1.25.18.467.593 1.388.929 2.047.526 1.047.772 1.456 1.577 2.661.437.66 1.623 2.024 2.418 2.798 1.835 1.785 4.24 3.343 6.479 4.207.123.046.402.16.626.262.235.102.605.216.84.261.246.046.537.148.66.228.123.08.47.182.783.227.302.046.683.125.84.194.279.113.861.227 2.293.432.426.057 1.87.159 3.19.216 4.174.182 5.606.318 7.217.682.302.068.727.16.929.193.201.035.392.103.425.16.034.056.157.102.28.102.112 0 .302.046.414.114.1.057.582.261 1.074.454 1.052.41 2.283 1.08 3.29 1.797 1.074.75 3.1 2.866 3.838 4.003.66 1 1.645 2.923 1.947 3.775.56 1.559.951 2.9 1.019 3.423.044.33.145.774.235.99.129.306.165.908.167 2.861v.337c-.002 1.528-.057 2.683-.122 2.806-.057.113-.168.67-.236 1.228-.078.557-.2 1.24-.28 1.524-.48 1.717-.67 2.33-1.04 3.298-.448 1.182-1.264 2.786-1.902 3.74-.205.292-.403.587-.593.888-.47.705-1.914 2.286-2.832 3.093-.996.864-2.271 1.808-3.3 2.433-1.981 1.206-5.54 2.627-7.9 3.15-.66.148-6.3.046-6.715-.113-.19-.08-.66-.182-1.063-.239a25.855 25.855 0 0 1-2.294-.42c-.246-.07-.705-.172-1.007-.24-1.309-.284-4.174-1.182-4.946-1.546-.19-.091-.38-.17-.425-.17-.045 0-.235-.07-.425-.16-.202-.091-.84-.375-1.422-.637-3.055-1.364-6.11-3.275-9.231-5.777-1.444-1.16-5.338-5.071-5.898-5.924a6.774 6.774 0 0 0-.47-.637c-.212-.193-1.443-1.888-2.014-2.786-.302-.466-.638-.99-.75-1.16-.123-.17-.212-.33-.212-.364 0-.034-.146-.284-.336-.557-.313-.478-1.913-3.64-2.272-4.515-.089-.216-.268-.625-.391-.91-.123-.284-.302-.739-.392-1.023-.1-.284-.335-.944-.526-1.478a23.792 23.792 0 0 1-.447-1.365c-.258-1.034-.549-2.138-.66-2.445-.18-.534-.448-2.035-.616-3.434-.09-.705-.201-1.342-.257-1.421-.302-.478-.302-9.564.011-10.076.045-.08.156-.716.235-1.421.168-1.376.425-2.763.682-3.662.079-.307.258-.955.392-1.421.336-1.217.862-2.82 1.12-3.378.111-.273.212-.545.212-.602 0-.069.1-.341.224-.592.123-.261.223-.523.223-.58 0-.147 1.903-3.98 2.306-4.65.995-1.66 1.61-2.627 2.137-3.367 3.883-5.515 8.862-9.893 14.939-13.145.425-.216.76-.376.76-.341Zm22-3.984c.281.068.954.148 1.515.194.55.045 1.167.147 1.347.227.19.08.695.17 1.122.216a9.21 9.21 0 0 1 1.29.24c.264.085 1.26.33 2.272.577l.196.048c1.077.262 2.087.512 2.244.558.157.057.505.159.786.239 1.362.388 2.21.726 3.97 1.614l.293.15c1.358.682 2.031 1.069 3.366 1.888 1.19.74 3.624 2.492 4.6 3.322 2.177 1.855 4.948 4.711 6.227 6.463.124.171.595.797 1.033 1.389.449.603.819 1.126.819 1.172 0 .045.09.193.213.318.37.432 1.975 3.254 2.94 5.189.291.591 1.245 2.935 1.503 3.698.168.5.336.967.37 1.024a.716.716 0 0 1 .09.273c.022.08.135.466.258.853.393 1.218.673 2.265.785 2.947.068.353.169.751.236.865.056.125.112.432.112.683 0 .25.045.477.112.523.056.034.101.284.101.546a2.39 2.39 0 0 0 .112.797c.068.182.124.557.124.853 0 .296.056.74.112.99.146.592.146 8.056 0 8.648-.056.25-.112.693-.112.978 0 .285-.045.671-.112.854-.074.257-.13.52-.169.784-.213 1.821-1.155 5.564-1.727 6.941-.056.125-.214.558-.348.967-.135.41-.45 1.207-.696 1.764-.247.57-.493 1.127-.538 1.252-.236.626-1.268 2.605-1.885 3.64-.169.274-.55.922-.853 1.423-.303.512-.662 1.07-.808 1.252-.146.17-.269.353-.269.386 0 .035-.236.376-.539.763-.291.387-.65.865-.808 1.07-1.93 2.548-4.835 5.438-7.674 7.611-.808.627-2.177 1.56-3.725 2.538-.392.25-2.839 1.627-2.895 1.627-.022 0-.516.228-1.099.512-.572.285-1.055.512-1.077.512-.068 0 .55-.785.64-.82.235-.09 1.705-2.002 2.535-3.276 1.178-1.832 2.457-4.517 2.861-6.03.079-.285.18-.615.224-.74.045-.125.146-.535.225-.91.078-.376.18-.797.236-.945.056-.148.1-.42.1-.603 0-.194.045-.444.113-.558.112-.227.168-.75.348-3.3.179-2.616.157-3.253-.18-5.996a3.303 3.303 0 0 0-.168-.773 2.286 2.286 0 0 1-.113-.626c0-.182-.056-.364-.112-.398-.067-.034-.112-.217-.112-.41 0-.182-.045-.42-.1-.535-.057-.102-.259-.705-.461-1.331s-.426-1.24-.516-1.365c-.09-.125-.157-.285-.157-.365 0-.215-.475-1.23-1.05-2.237l-.095-.163c-2.39-4.12-6.305-7.567-10.355-9.126-.37-.136-.83-.319-1.01-.398a3.746 3.746 0 0 0-.786-.228c-.246-.045-.55-.136-.673-.204-.236-.126-1.963-.5-3.03-.66-.37-.057-1.738-.16-3.029-.217-4.342-.216-6.024-.364-7.405-.682a41.252 41.252 0 0 0-.897-.182 3.963 3.963 0 0 1-.561-.148 5.744 5.744 0 0 0-.673-.228c-1.706-.534-3.905-1.673-5.274-2.73-1.02-.797-2.468-2.345-3.152-3.403-1.167-1.786-2.2-4.346-2.727-6.736-.752-3.504-.437-8.101.83-11.89.662-1.991 2.2-5.143 3.063-6.258 1.19-1.548 1.594-2.037 2.3-2.708.999-.945 2.401-1.935 3.737-2.629.56-.284 1.054-.523 1.1-.523.055 0 .246-.068.437-.16 1.066-.477 2.838-.841 5.295-1.114 1.874-.205 4.298-.103 5.779.227Zm34.62 14.487c4.807 3.667 9.447 7.868 12.41 11.217.693.784 1.33 1.5 1.431 1.59.28.26 2.013 2.248 2.337 2.668.146.191.704.899 1.279 1.63l.119.152c1.956 2.464 3.521 4.576 3.521 4.735 0 .057.079.159.168.238.1.08.727 1 1.398 2.033.476.72.95 1.443 1.42 2.168.29.42.592 1 .592 1.147 0 .136-.358.727-1.263 2.09-1.387 2.088-2.37 3.553-2.56 3.803-.112.159-.739.999-1.365 1.873-.637.874-1.263 1.692-1.397 1.805-.123.125-.235.261-.235.318 0 .136-2.258 2.975-3.365 4.224-.29.318-.705.806-.94 1.09-.223.284-1.017 1.18-1.766 1.987-3.958 4.325-7.826 7.868-12.265 11.263-.827.635-1.554 1.159-1.61 1.159-.044.01.079-.183.28-.433 1.967-2.304 4.204-5.983 5.88-9.662.492-1.067 1.6-3.962 1.834-4.768.079-.284.18-.557.213-.625.044-.057.145-.397.223-.738.079-.34.213-.772.28-.965.078-.182.179-.624.223-.965.045-.34.135-.715.19-.829.056-.113.146-.442.202-.738.044-.295.145-.84.223-1.215.157-.84.29-1.805.47-3.349.19-1.624.19-8.98 0-10.559-.235-1.987-.492-3.565-.75-4.655-.116-.479-.224-.96-.324-1.442-.089-.397-.2-.852-.268-1.022-.09-.293-.171-.588-.246-.885-.078-.307-.179-.67-.223-.795-.056-.125-.28-.784-.515-1.465-.402-1.237-.928-2.577-1.632-4.155-.324-.75-.66-1.386-1.71-3.35-.884-1.612-2.874-4.644-3.489-5.302-.514-.545-.179-.352 1.23.727ZM32.119 19.54l.005.001c.033.023-.101.217-.291.422-.303.318-.729.921-1.59 2.23-1.098 1.64-3.93 6.99-3.93 7.399 0 .068-.146.444-.325.83-.347.786-.963 2.528-1.333 3.791-.548 1.901-.694 2.425-.817 3.017-.067.341-.19.91-.28 1.252a20.876 20.876 0 0 0-.269 1.536c-.056.501-.156 1.116-.212 1.366-.594 2.47-.55 11.906.078 13.887.056.193.146.751.19 1.252.045.5.146 1.092.224 1.309.079.216.18.626.213.91.045.285.146.774.246 1.082.101.319.213.728.269.91.627 2.311 1.265 4.19 1.915 5.612.179.387.324.74.324.774 0 .148 2.005 4.143 2.284 4.564.157.24.292.467.292.513 0 .045.403.705.895 1.468.795 1.218 1.086 1.64 1.433 2.094.045.069.393.535.784 1.059.38.512.672.933.65.933-.034 0-.672-.466-1.434-1.047-7.748-5.885-15.574-14.228-21.845-23.254-.593-.865-3.314-4.974-3.47-5.248-.079-.136.022-.375.414-1.013.772-1.24 2.24-3.494 2.922-4.461.74-1.06 1.613-2.277 1.904-2.653.179-.239.627-.808.974-1.275 2.62-3.437 6.505-7.797 9.618-10.801 1.758-1.696 4.691-4.303 5.856-5.225.358-.285.907-.729 1.232-.99.94-.775 3.034-2.288 3.079-2.243h-.005Z" fill="currentColor" fill-rule="nonzero" stroke="currentColor"/></svg>