<svg width="1em" height="1em" viewBox="0 0 70 69" xmlns="http://www.w3.org/2000/svg"><path d="M27.402.128c1.874-.313 4.82.018 6.593.24 5.75.716 5.724.802 11.714 3.02 8.002 2.963 17.419 6.994 21.79 14.889 4.507 8.137 2.127 18.213-1.415 26.207a62.424 62.424 0 01-2.703 5.344c-3.195 5.67-6.946 10.574-12.833 13.565-2.992 1.52-6.305 2.473-9.491 3.454-4.153 1.28-8.38 2.026-12.725 1.385-7.35-1.084-13.33-5.915-18.109-11.35-1.717-1.953-3.74-4.256-4.882-6.721-.874-1.886-2.038-6.505-2.426-7.841C1.286 36.7-.275 31.123.041 25.197c.19-3.544.875-7.078 2.698-10.122 2.416-4.033 6.331-7.17 8.072-8.478.987-.742 4.612-3.314 7.606-4.564C21.48.753 25.524.44 27.402.128zm-.384 27.304c.45 3.63 3.095 18.468 4.163 22.893.205.847.468 1.162.52 1.108 5.404-5.671 7.09-10.085 9.612-15.176.252-.508 2.179-4.806 1.85-5.26-1.733-2.398-13.64-13.573-16.938-13.573-.967-.25.67 9.014.793 10.008z" fill="currentColor" fill-rule="evenodd"/></svg>